<svg width="65" height="44" viewBox="0 0 65 44" fill="none" xmlns="http://www.w3.org/2000/svg">
<path d="M53.7398 43.5984H10.8408V42.518C10.8408 41.0563 12.0211 39.876 13.4829 39.876H51.1069C52.5686 39.876 53.7489 41.0563 53.7489 42.518V43.5984H53.7398Z" fill="#F8ABAB"/>
<path d="M39.9849 36.1533H24.5957V39.8758H39.9849V36.1533Z" fill="#EF4B4B"/>
<path d="M33.393 3.86719H31.1777V36.1526H33.393V3.86719Z" fill="#F8ABAB"/>
<path d="M0.408782 16.615C0.372466 16.615 0.345228 16.606 0.317991 16.5878C0.245358 16.5333 0.227199 16.4335 0.281674 16.3699L9.37898 3.31408C9.43346 3.24145 9.53333 3.22329 9.60596 3.27777C9.6786 3.33224 9.69675 3.43211 9.64228 3.49567L0.53589 16.5515C0.508653 16.5969 0.454178 16.615 0.408782 16.615Z" fill="#F8ABAB"/>
<path d="M18.6037 16.615C18.5493 16.615 18.5039 16.5878 18.4766 16.5424L9.37933 3.49565C9.32486 3.42301 9.34301 3.32314 9.41565 3.27775C9.48828 3.23235 9.58815 3.24143 9.63355 3.31406L18.7309 16.3699C18.7853 16.4425 18.7672 16.5424 18.6945 16.5878C18.6673 16.6059 18.6401 16.615 18.6037 16.615Z" fill="#F8ABAB"/>
<path d="M0 15.9521C0 21.6175 4.25812 26.2207 9.50587 26.2207C14.7536 26.2207 19.0117 21.6266 19.0117 15.9521H0Z" fill="#EF4B4B"/>
<path d="M64.1724 16.615C64.1179 16.615 64.0725 16.5878 64.0453 16.5424L54.9389 3.49565C54.8844 3.42301 54.9026 3.32314 54.9752 3.27775C55.0479 3.23235 55.1477 3.24143 55.2022 3.31406L64.2995 16.3699C64.354 16.4425 64.3358 16.5424 64.2632 16.5878C64.236 16.6059 64.1996 16.615 64.1724 16.615Z" fill="#F8ABAB"/>
<path d="M45.9684 16.615C45.932 16.615 45.9048 16.606 45.8776 16.5878C45.8049 16.5333 45.7868 16.4335 45.8412 16.3699L54.9386 3.31408C54.993 3.24145 55.0929 3.22329 55.1565 3.27777C55.2291 3.33224 55.2472 3.43211 55.1928 3.49567L46.1045 16.5515C46.0682 16.5969 46.0228 16.615 45.9684 16.615Z" fill="#F8ABAB"/>
<path d="M64.5801 15.9521C64.5801 21.6175 60.322 26.2207 55.0742 26.2207C49.8265 26.2207 45.5684 21.6266 45.5684 15.9521H64.5801Z" fill="#EF4B4B"/>
<path d="M55.0742 4.59611V2.19922L9.50595 2.19922V4.59611L55.0742 4.59611Z" fill="#F8ABAB"/>
<path d="M35.4367 3.40468C35.4367 5.28407 34.0294 6.80936 32.2862 6.80936C30.543 6.80936 29.1357 5.28407 29.1357 3.40468C29.1357 1.5253 30.543 0 32.2862 0C34.0294 0 35.4367 1.5253 35.4367 3.40468Z" fill="#2B3956"/>
<path d="M11.3857 3.40482C11.3857 4.53064 10.5414 5.43855 9.50634 5.43855C8.46224 5.43855 7.62695 4.53064 7.62695 3.40482C7.62695 2.27901 8.47131 1.37109 9.50634 1.37109C10.5504 1.37109 11.3857 2.27901 11.3857 3.40482Z" fill="#2B3956"/>
<path d="M56.9541 3.40482C56.9541 4.53064 56.1097 5.43855 55.0747 5.43855C54.0306 5.43855 53.1953 4.53064 53.1953 3.40482C53.1953 2.27901 54.0397 1.37109 55.0747 1.37109C56.1097 1.37109 56.9541 2.27901 56.9541 3.40482Z" fill="#2B3956"/>
</svg>
