<svg width="67" height="54" viewBox="0 0 67 54" fill="none" xmlns="http://www.w3.org/2000/svg">
<path d="M30.9472 20.6211H0.505859L30.9472 53.6532L61.3886 20.6211H30.9472Z" fill="#F37C7C"/>
<path d="M52.902 6.81934H8.98296L0.505859 20.6208H61.3886L52.902 6.81934Z" fill="#FDE8E8"/>
<path d="M16.308 20.6208L23.6231 6.81934H16.308H8.9834L16.308 20.6208Z" fill="#F37C7C"/>
<path d="M30.9476 20.6208L38.2627 6.81934H30.9476H23.623L30.9476 20.6208Z" fill="#F37C7C"/>
<path d="M45.5873 20.6208L52.9024 6.81934H45.5873H38.2627L45.5873 20.6208Z" fill="#F37C7C"/>
<path d="M16.3076 20.6211L30.9473 53.6532V20.6211H16.3076Z" fill="#FDE8E8"/>
<path d="M52.902 6.81934L45.5869 20.6208H52.902H61.3886L52.902 6.81934Z" fill="#EF4B4B"/>
<path d="M45.5869 20.6211L30.9473 53.6532L61.3886 20.6211H45.5869Z" fill="#EF4B4B"/>
<path d="M8.58274 0.333008L10.0781 5.72407L15.4692 7.21946L10.0781 8.72438L8.58274 14.1059L7.08734 8.72438L1.69629 7.21946L7.08734 5.72407L8.58274 0.333008Z" fill="#4B7196"/>
<path d="M3.65858 12.5918L4.34437 15.0587L6.80177 15.7445L4.34437 16.4303L3.65858 18.8972L2.97279 16.4303L0.505859 15.7445L2.97279 15.0587L3.65858 12.5918Z" fill="#4B7196"/>
<path d="M61.9692 16.582L62.855 19.7443L66.0077 20.6206L62.855 21.5064L61.9692 24.6591L61.0929 21.5064L57.9307 20.6206L61.0929 19.7443L61.9692 16.582Z" fill="#4B7196"/>
</svg>
