<svg width="48" height="48" viewBox="0 0 48 48" fill="none" xmlns="http://www.w3.org/2000/svg">
<g clip-path="url(#clip0_1507_76587)">
<path d="M47.532 24.5525C47.532 22.921 47.3997 21.2808 47.1175 19.6758H24.48V28.9177H37.4434C36.9055 31.8985 35.177 34.5352 32.6461 36.2108V42.2075H40.3801C44.9217 38.0274 47.532 31.8544 47.532 24.5525Z" fill="#4285F4"/>
<path d="M24.48 47.9987C30.9529 47.9987 36.4116 45.8734 40.3888 42.2049L32.6549 36.2082C30.5031 37.6721 27.7252 38.501 24.4888 38.501C18.2275 38.501 12.9187 34.2769 11.0139 28.5977H3.03296V34.7795C7.10718 42.8839 15.4056 47.9987 24.48 47.9987V47.9987Z" fill="#34A853"/>
<path d="M11.0053 28.6014C9.99997 25.6207 9.99997 22.3931 11.0053 19.4124V13.2305H3.03323C-0.370777 20.012 -0.370777 28.0017 3.03323 34.7833L11.0053 28.6014V28.6014Z" fill="#FBBC04"/>
<path d="M24.48 9.49932C27.9016 9.44641 31.2086 10.7339 33.6866 13.0973L40.5388 6.24523C36.2 2.17101 30.4414 -0.068932 24.48 0.00161733C15.4055 0.00161733 7.10718 5.11644 3.03296 13.2296L11.005 19.4115C12.901 13.7235 18.2187 9.49932 24.48 9.49932V9.49932Z" fill="#EA4335"/>
</g>
<defs>
<clipPath id="clip0_1507_76587">
<rect width="48" height="48" fill="white"/>
</clipPath>
</defs>
</svg>
