<svg width="109" height="33" viewBox="0 0 109 33" fill="none" xmlns="http://www.w3.org/2000/svg">
<path d="M30.7037 9.46149H24.4996C22.824 6.29148 19.8352 4.70648 16.0764 4.70648C9.827 4.70648 5.29843 9.14449 5.29843 16.0732C5.29843 23.0019 9.827 27.4852 16.0764 27.4852C21.7824 27.4852 25.36 24.0435 26.1299 18.7451H14.3103V14.6241H31.6547V18.6545C30.7037 25.9455 24.5449 32.1496 16.0764 32.1496C7.20043 32.1496 0 25.5379 0 16.0764C0 6.657 7.20043 2.37153e-06 16.0764 2.37153e-06C22.6429 -0.00323232 28.3036 3.30263 30.7037 9.46149Z" fill="#EF4B4B"/>
<path d="M48.4565 32.2856C41.3014 32.2856 36.0029 27.2136 36.0029 19.3792C36.0029 11.5448 41.0749 6.51807 48.4565 6.51807C55.5664 6.51807 60.5931 11.4542 60.5931 18.7905C60.5931 19.6509 60.5478 20.4661 60.4119 21.3265H41.3466C41.7089 25.4475 44.6525 27.9382 48.4565 27.9382C51.6265 27.9382 53.3927 26.3985 54.3437 24.4512H59.9138C58.5099 28.8019 54.5701 32.2856 48.4565 32.2856ZM41.3919 17.1602H55.2041C55.1135 13.3109 52.0794 10.8655 48.2301 10.8655C44.7431 10.8655 41.9354 13.2204 41.3919 17.1602Z" fill="#EF4B4B"/>
<path d="M75.7186 6.521C79.9302 6.521 82.8285 8.51357 84.3682 10.5514V6.92857H89.5761V31.881H84.3682V28.1676C82.7832 30.296 79.7943 32.2886 75.6281 32.2886C69.1522 32.2886 63.9443 26.9901 63.9443 19.2916C63.9443 11.593 69.1522 6.521 75.7186 6.521ZM76.8055 11.001C72.9562 11.001 69.2428 13.8993 69.2428 19.2883C69.2428 24.6773 72.9562 27.8021 76.8055 27.8021C80.7001 27.8021 84.3682 24.7679 84.3682 19.3789C84.3682 14.0352 80.7001 11.001 76.8055 11.001Z" fill="#EF4B4B"/>
<path d="M101.528 31.8781H96.3652V6.92564H101.528V10.5485C102.977 8.05778 105.468 6.51807 109 6.51807V11.8618H107.687C103.883 11.8618 101.528 13.4468 101.528 18.7452V31.8781Z" fill="#EF4B4B"/>
</svg>
