<svg width="52" height="66" viewBox="0 0 52 66" fill="none" xmlns="http://www.w3.org/2000/svg">
<path d="M14.0813 25.3965L0.43457 61.4793L8.17479 57.9618L11.8333 65.9665L26.0267 28.482L14.0813 25.3965Z" fill="#F37C7C"/>
<path d="M37.9277 25.3965L51.5657 61.4793L43.8343 57.9618L40.1758 65.9665L25.9824 28.482L37.9277 25.3965Z" fill="#F37C7C"/>
<path d="M26.0003 45.6812C38.5228 45.6812 48.6743 35.5296 48.6743 23.0071C48.6743 10.4845 38.5228 0.333008 26.0003 0.333008C13.4777 0.333008 3.32617 10.4845 3.32617 23.0071C3.32617 35.5296 13.4777 45.6812 26.0003 45.6812Z" fill="#F8ABAB"/>
<path d="M26.0006 41.2736C36.0887 41.2736 44.2668 33.0956 44.2668 23.0074C44.2668 12.9193 36.0887 4.74121 26.0006 4.74121C15.9124 4.74121 7.73438 12.9193 7.73438 23.0074C7.73438 33.0956 15.9124 41.2736 26.0006 41.2736Z" fill="#2B3956"/>
<path d="M26 39.1308C34.905 39.1308 42.124 31.9118 42.124 23.0068C42.124 14.1018 34.905 6.88281 26 6.88281C17.0949 6.88281 9.87598 14.1018 9.87598 23.0068C9.87598 31.9118 17.0949 39.1308 26 39.1308Z" fill="white"/>
<path d="M34.6303 21.7991C34.6303 19.0751 32.4176 16.8623 29.6935 16.8623C28.2213 16.8623 26.9077 17.5235 26.0085 18.5461C25.1005 17.5235 23.7958 16.8623 22.3235 16.8623C19.5995 16.8623 17.3867 19.0751 17.3867 21.7991C17.3867 23.1744 17.9509 24.4086 18.8589 25.3078L26.0173 31.7697L33.1757 25.3078C34.0661 24.4086 34.6303 23.1744 34.6303 21.7991ZM25.9997 25.0698H25.9821C25.9909 25.0609 25.9909 25.0521 25.9997 25.0433C26.0085 25.0521 26.0085 25.0609 26.0173 25.0698H25.9997Z" fill="#EF4B4B"/>
</svg>
